<svg width="32" height="30" viewBox="0 0 32 30" fill="none" xmlns="http://www.w3.org/2000/svg">
<path d="M31.1939 2.59337C31.1734 2.57286 31.1375 2.54723 31.0863 2.51646C31.035 2.4857 30.9991 2.46006 30.9786 2.43956L30.7632 2.37803L17.3197 15.8216L15.3509 13.945C15.1868 13.7809 15.0791 13.5912 15.0278 13.3759C14.9766 13.1605 14.9714 12.9503 15.0125 12.7452C15.2791 11.9249 15.2996 11.0789 15.074 10.2073C14.8484 9.33565 14.4075 8.5717 13.7512 7.91541L6.30646 0.439945C6.22443 0.35791 6.13727 0.316893 6.04498 0.316893C5.95269 0.316893 5.88603 0.35791 5.84502 0.439945C5.76298 0.52198 5.72196 0.609142 5.72196 0.701433C5.72196 0.793722 5.76298 0.860376 5.84502 0.901394L13.2897 8.37686C13.8435 8.9306 14.2229 9.58175 14.428 10.3303C14.633 11.0789 14.6228 11.8121 14.3972 12.5299C14.2947 12.858 14.2793 13.1964 14.3511 13.5451C14.4228 13.8937 14.592 14.1809 14.8586 14.4065L16.8583 16.3138L15.9661 17.2059L14.0896 15.2063C13.8435 14.9397 13.5512 14.7654 13.2128 14.6833C12.8744 14.6013 12.5309 14.6218 12.1822 14.7449C11.4849 14.9704 10.7569 14.9807 9.99805 14.7756C9.23923 14.5705 8.58294 14.1911 8.02921 13.6374L0.584502 6.16191C0.502466 6.07987 0.415304 6.03885 0.323014 6.03885C0.230724 6.03885 0.164071 6.07987 0.123053 6.16191C0.0410177 6.24394 0 6.33111 0 6.4234C0 6.51569 0.0410177 6.58234 0.123053 6.62336L7.56776 14.0988C8.22404 14.7551 8.98799 15.196 9.85962 15.4216C10.7312 15.6472 11.5772 15.6267 12.3976 15.3601C12.6027 15.2781 12.818 15.273 13.0436 15.3447C13.2692 15.4165 13.4538 15.5242 13.5974 15.6677L15.5047 17.6674L6.15265 27.0809C5.98858 27.245 5.8604 27.4296 5.76811 27.6346C5.67582 27.8397 5.62967 28.0551 5.62967 28.2807C5.62967 28.5268 5.67069 28.7524 5.75273 28.9575C5.83476 29.1626 5.94756 29.3369 6.09112 29.4804C6.25519 29.6445 6.43977 29.7676 6.64486 29.8496C6.84995 29.9316 7.07555 29.9727 7.32165 29.9727C7.54725 29.9727 7.76259 29.9214 7.96768 29.8188C8.17277 29.7163 8.35735 29.5932 8.52142 29.4497L16.0276 21.4512C16.0482 21.4307 16.0943 21.4 16.1661 21.3589C16.2379 21.3179 16.3148 21.2667 16.3968 21.2051C16.5814 21.1026 16.8019 20.9693 17.0582 20.8052C17.3146 20.6411 17.5966 20.4566 17.9042 20.2515L26.6102 29.4497C26.7743 29.5932 26.9589 29.7163 27.1639 29.8188C27.369 29.9214 27.5946 29.9727 27.8407 29.9727C28.0663 29.9727 28.2817 29.9316 28.4868 29.8496C28.6918 29.7676 28.8764 29.6343 29.0405 29.4497C29.2046 29.2856 29.3328 29.0908 29.425 28.8652C29.5173 28.6396 29.5635 28.414 29.5635 28.1884C29.5635 27.9423 29.5173 27.7167 29.425 27.5116C29.3328 27.3065 29.2046 27.1322 29.0405 26.9886L20.3653 18.6825C20.9805 18.2519 21.6112 17.7802 22.2572 17.2674C22.9032 16.7547 23.5749 16.2112 24.2722 15.637C25.2976 14.7141 26.2103 13.8014 27.0101 12.8991C27.8305 11.9967 28.538 11.0892 29.1328 10.1765C29.7275 9.26387 30.2198 8.35635 30.6094 7.45396C30.9991 6.55158 31.276 5.64919 31.44 4.7468V4.68527C31.481 4.45967 31.5016 4.1059 31.5016 3.62394C31.5016 3.14198 31.399 2.79846 31.1939 2.59337ZM28.6713 27.5116C28.7739 27.6141 28.8508 27.7269 28.9021 27.85C28.9533 27.973 28.979 28.1064 28.979 28.2499C28.979 28.373 28.9533 28.5063 28.9021 28.6498C28.8508 28.7934 28.7739 28.8959 28.6713 28.9575C28.5688 29.0805 28.4509 29.1677 28.3176 29.219C28.1843 29.2702 28.0561 29.2959 27.933 29.2959C27.81 29.2959 27.6818 29.2702 27.5485 29.219C27.4152 29.1677 27.2972 29.0805 27.1947 28.9575L18.581 19.9438C18.7656 19.8003 18.9604 19.6618 19.1655 19.5285C19.3706 19.3952 19.5859 19.2465 19.8115 19.0825L28.6713 27.5116ZM30.8248 4.65451C30.6607 5.51588 30.3941 6.37725 30.0249 7.23862C29.6558 8.1205 29.1738 9.00238 28.5791 9.88426C27.9843 10.7661 27.287 11.6378 26.4872 12.4991C25.6873 13.381 24.7849 14.2629 23.78 15.1448C22.9801 15.8626 22.1906 16.5189 21.4112 17.1136C20.6319 17.7084 19.8987 18.2365 19.2116 18.6979C18.5246 19.1594 17.9145 19.5542 17.3812 19.8823C16.848 20.231 16.4276 20.4976 16.1199 20.6822C15.9969 20.7437 15.9046 20.795 15.8431 20.836C15.7815 20.877 15.7405 20.9078 15.72 20.9283H15.597L8.02921 28.9575C7.92666 29.0805 7.81899 29.1677 7.70619 29.219C7.59339 29.2702 7.46521 29.2959 7.32165 29.2959C7.17809 29.2959 7.04478 29.2702 6.92173 29.219C6.79868 29.1677 6.68588 29.0805 6.58333 28.9575C6.5013 28.8959 6.43464 28.8037 6.38337 28.6806C6.3321 28.5575 6.30646 28.4242 6.30646 28.2807C6.30646 28.1576 6.3321 28.0294 6.38337 27.8961C6.43464 27.7628 6.51155 27.6449 6.6141 27.5424L30.7632 3.33169C30.7837 3.43423 30.8043 3.5983 30.8248 3.8239C30.8453 4.0495 30.8453 4.32637 30.8248 4.65451ZM1.99961 4.7468C1.91758 4.66476 1.87656 4.5776 1.87656 4.48531C1.87656 4.39302 1.91758 4.32637 1.99961 4.28535C2.08165 4.20332 2.16881 4.1623 2.2611 4.1623C2.35339 4.1623 2.4303 4.20332 2.49182 4.28535L9.72118 11.4839C9.80322 11.5455 9.84424 11.6224 9.84424 11.7147C9.84424 11.807 9.80322 11.8839 9.72118 11.9454C9.70068 11.9659 9.66478 11.9864 9.61351 12.0069C9.56224 12.0274 9.50584 12.0377 9.44431 12.0377C9.4033 12.0377 9.36741 12.0274 9.33664 12.0069C9.30588 11.9864 9.25974 11.9659 9.19821 11.9454L1.99961 4.7468ZM3.93769 2.80871C3.87617 2.72668 3.84541 2.63952 3.84541 2.54723C3.84541 2.45494 3.87617 2.37803 3.93769 2.3165C4.01973 2.25498 4.10689 2.22421 4.19918 2.22421C4.29147 2.22421 4.36838 2.25498 4.42991 2.3165L11.6593 9.57663C11.7413 9.65866 11.7823 9.74582 11.7823 9.83812C11.7823 9.9304 11.7413 10.0073 11.6593 10.0688C11.6388 10.0893 11.6029 10.1099 11.5516 10.1304C11.5003 10.1509 11.4542 10.1611 11.4132 10.1611C11.3516 10.1611 11.3055 10.1509 11.2747 10.1304C11.244 10.1099 11.1978 10.0893 11.1363 10.0688L3.93769 2.80871Z" fill="#FFDEA0"/>
</svg>
