<svg width="32" height="33" viewBox="0 0 32 33" fill="none" xmlns="http://www.w3.org/2000/svg">
<g clip-path="url(#clip0_592_5560)">
<path d="M21.7529 19.6312V19.9081C21.7529 20.0106 21.7837 20.0926 21.8452 20.1542C21.9068 20.2157 21.9785 20.2465 22.0606 20.2465C22.1631 20.2465 22.2452 20.2157 22.3067 20.1542C22.3682 20.0926 22.399 20.0106 22.399 19.9081V18.9852H15.3849V11.725C15.7951 11.684 16.1745 11.5507 16.5232 11.3251C16.8718 11.0995 17.159 10.8124 17.3846 10.4638C17.6512 10.8739 17.9947 11.1867 18.4151 11.402C18.8356 11.6174 19.2816 11.725 19.7533 11.725C20.5327 11.725 21.1941 11.4533 21.7376 10.9098C22.281 10.3663 22.5528 9.71518 22.5528 8.95636V8.43338C22.5528 7.40794 22.3477 6.44402 21.9375 5.54164C21.5479 4.63925 21.0146 3.84966 20.3378 3.17287C19.661 2.49607 18.8715 1.96284 17.9691 1.57318C17.0462 1.18351 16.072 0.988676 15.0466 0.988676C14.0006 0.988676 13.0264 1.18351 12.124 1.57318C11.2217 1.96284 10.4269 2.49607 9.73989 3.17287C9.05285 3.84966 8.51449 4.6495 8.12482 5.5724C7.73516 6.47479 7.54032 7.4387 7.54032 8.46414V8.98712C7.54032 9.76645 7.81719 10.4227 8.37093 10.956C8.92467 11.4892 9.58095 11.7558 10.3398 11.7558C10.8115 11.7558 11.2524 11.643 11.6626 11.4174C12.0728 11.1918 12.4112 10.8944 12.6778 10.5253C12.9034 10.8534 13.1956 11.1303 13.5545 11.3559C13.9134 11.5815 14.298 11.7148 14.7082 11.7558V18.9852H7.7249V19.9081C7.7249 20.0106 7.75566 20.0926 7.81719 20.1542C7.87872 20.2157 7.9505 20.2465 8.03253 20.2465C8.13508 20.2465 8.21711 20.2157 8.27864 20.1542C8.34017 20.0926 8.37093 20.0106 8.37093 19.9081V19.6312H14.7389V32.1518C14.7389 32.2544 14.7697 32.3364 14.8312 32.3979C14.8927 32.4595 14.9748 32.4902 15.0773 32.4902C15.1799 32.4902 15.2619 32.4595 15.3234 32.3979C15.3849 32.3364 15.4157 32.2544 15.4157 32.1518V19.6312H21.7529ZM13.0162 9.66391L12.7085 8.71025L12.4009 9.66391C12.2368 10.0946 11.9702 10.4432 11.6011 10.7099C11.2319 10.9765 10.8217 11.1098 10.3705 11.1098C9.77578 11.1098 9.27332 10.8996 8.86314 10.4791C8.45297 10.0587 8.24788 9.56137 8.24788 8.98712V8.46414C8.24788 7.52074 8.4222 6.63886 8.77085 5.8185C9.14001 4.99815 9.63222 4.28034 10.2475 3.66508C10.8628 3.04981 11.5806 2.56786 12.4009 2.21921C13.2418 1.87056 14.1339 1.69623 15.0773 1.69623C16.0207 1.69623 16.9129 1.87056 17.7537 2.21921C18.5741 2.56786 19.2919 3.04981 19.9071 3.66508C20.5224 4.28034 21.0146 4.99815 21.3838 5.8185C21.7324 6.63886 21.9068 7.52074 21.9068 8.46414V8.98712C21.9068 9.58187 21.6965 10.0843 21.2761 10.4945C20.8557 10.9047 20.3583 11.1098 19.7841 11.1098C19.3124 11.1098 18.892 10.9765 18.5228 10.7099C18.1536 10.4432 17.8973 10.0946 17.7537 9.66391L17.4153 8.71025L17.1077 9.66391C16.9436 10.0946 16.677 10.4432 16.3078 10.7099C15.9387 10.9765 15.5285 11.1098 15.0773 11.1098C15.0568 11.1098 15.0312 11.1098 15.0004 11.1098C14.9696 11.1098 14.9543 11.12 14.9543 11.1405C14.9338 11.1405 14.9132 11.1354 14.8927 11.1252C14.8722 11.1149 14.8517 11.1098 14.8312 11.1098C14.4005 11.0483 14.0262 10.8893 13.7084 10.633C13.3905 10.3766 13.1597 10.0536 13.0162 9.66391ZM13.0162 23.8765C13.0162 23.7945 12.9854 23.7227 12.9239 23.6612C12.8624 23.5997 12.7803 23.5689 12.6778 23.5689H4.77163L2.46439 14.6168C2.44388 14.5348 2.39261 14.4681 2.31057 14.4168C2.22854 14.3656 2.1465 14.3604 2.06447 14.4014C1.98243 14.422 1.91578 14.4732 1.8645 14.5553C1.81323 14.6373 1.8081 14.7193 1.84912 14.8014L4.15637 23.9381L3.01813 32.0903C2.99762 32.1723 3.013 32.2544 3.06427 32.3364C3.11554 32.4185 3.19245 32.4595 3.29499 32.4595H3.32576C3.40779 32.4595 3.47957 32.4287 3.5411 32.3672C3.60263 32.3057 3.64364 32.2339 3.66415 32.1518L4.80239 24.1842H10.0937L12.3702 32.2134C12.3702 32.2954 12.4009 32.3569 12.4624 32.3979C12.524 32.439 12.5957 32.4595 12.6778 32.4595H12.8008C12.8829 32.439 12.9444 32.3877 12.9854 32.3057C13.0264 32.2236 13.0367 32.1416 13.0162 32.0595L10.8012 24.2457H12.6778C12.7598 24.2252 12.8367 24.1842 12.9085 24.1226C12.9803 24.0611 13.0162 23.9791 13.0162 23.8765ZM29.1361 14.3707C29.0541 14.3502 28.972 14.3604 28.89 14.4014C28.808 14.4425 28.7567 14.504 28.7362 14.586L26.4597 23.5381H18.5228C18.4203 23.5381 18.3382 23.5689 18.2767 23.6304C18.2152 23.6919 18.1844 23.7637 18.1844 23.8458C18.1844 23.9483 18.2152 24.0303 18.2767 24.0919C18.3382 24.1534 18.4203 24.1842 18.5228 24.1842H20.4301L18.1844 31.998C18.1639 32.0801 18.1793 32.1621 18.2306 32.2441C18.2818 32.3262 18.3485 32.3774 18.4305 32.3979H18.5228C18.5843 32.3979 18.6459 32.3774 18.7074 32.3364C18.7689 32.2954 18.8202 32.2339 18.8612 32.1518L21.1069 24.1534H26.429L27.5364 32.1826C27.5569 32.2646 27.598 32.3364 27.6595 32.3979C27.721 32.4595 27.7928 32.4902 27.8748 32.4902H27.9056C27.9876 32.4697 28.0594 32.4236 28.1209 32.3518C28.1825 32.28 28.2132 32.2031 28.2132 32.1211L27.0442 23.9688L29.3822 14.8321C29.4027 14.7091 29.3874 14.6065 29.3361 14.5245C29.2848 14.4425 29.2182 14.3912 29.1361 14.3707Z" fill="#FFDEA0"/>
</g>
<defs>
<clipPath id="clip0_592_5560">
<rect width="31.5016" height="32.2891" fill="white" transform="matrix(1 0 0 -1 0.24939 32.8838)"/>
</clipPath>
</defs>
</svg>
