<svg width="32" height="33" viewBox="0 0 32 33" fill="none" xmlns="http://www.w3.org/2000/svg">
<g clip-path="url(#clip0_592_5770)">
<path d="M5.04858 1.48387C4.65891 1.48387 4.33077 1.61717 4.06415 1.88379C3.79754 2.1504 3.66423 2.47855 3.66423 2.86821V4.2218H1.2647C0.998084 4.2218 0.762232 4.32434 0.557144 4.52943C0.352056 4.73452 0.249512 4.97037 0.249512 5.23698V27.7557C0.249512 28.0428 0.352056 28.2838 0.557144 28.4786C0.762232 28.6734 0.998084 28.7709 1.2647 28.7709H23.2297L25.6599 31.3857C25.742 31.4678 25.8343 31.5037 25.9368 31.4934C26.0394 31.4832 26.1214 31.4473 26.1829 31.3857L30.9512 26.3098C31.4845 25.7356 31.7511 25.0434 31.7511 24.2333C31.7511 23.4232 31.4845 22.731 30.9512 22.1568C30.5821 21.7876 30.1668 21.5312 29.7053 21.3877C29.2439 21.2441 28.7875 21.2339 28.3363 21.3569V5.23698C28.3363 4.97037 28.2338 4.73452 28.0287 4.52943C27.8236 4.32434 27.5775 4.2218 27.2904 4.2218H24.8909V2.86821C24.8909 2.47855 24.7576 2.1504 24.4909 1.88379C24.2243 1.61717 23.9064 1.48387 23.5373 1.48387C23.1681 1.48387 22.8451 1.61717 22.5682 1.88379C22.2914 2.1504 22.1529 2.47855 22.1529 2.86821V4.2218H18.7382V2.86821C18.7382 2.47855 18.6049 2.1504 18.3383 1.88379C18.0717 1.61717 17.7538 1.48387 17.3846 1.48387C16.995 1.48387 16.6668 1.61717 16.4002 1.88379C16.1336 2.1504 16.0003 2.47855 16.0003 2.86821V4.2218H12.5856V2.86821C12.5856 2.47855 12.4523 2.1504 12.1856 1.88379C11.919 1.61717 11.5909 1.48387 11.2012 1.48387C10.8321 1.48387 10.5142 1.61717 10.2476 1.88379C9.98095 2.1504 9.84764 2.47855 9.84764 2.86821V4.2218H6.40216V2.86821C6.40216 2.47855 6.26885 2.1504 6.00224 1.88379C5.73562 1.61717 5.41774 1.48387 5.04858 1.48387ZM5.04858 2.19142C5.23316 2.19142 5.3921 2.25295 5.52541 2.376C5.65871 2.49905 5.72537 2.66312 5.72537 2.86821V6.28293C5.72537 6.46751 5.65871 6.62646 5.52541 6.75976C5.3921 6.89307 5.23316 6.95972 5.04858 6.95972C4.84349 6.95972 4.67942 6.89307 4.55637 6.75976C4.43331 6.62646 4.37179 6.46751 4.37179 6.28293V2.86821C4.37179 2.66312 4.43331 2.49905 4.55637 2.376C4.67942 2.25295 4.84349 2.19142 5.04858 2.19142ZM11.2012 2.19142C11.4063 2.19142 11.5704 2.25295 11.6934 2.376C11.8165 2.49905 11.878 2.66312 11.878 2.86821V6.28293C11.878 6.46751 11.8165 6.62646 11.6934 6.75976C11.5704 6.89307 11.4063 6.95972 11.2012 6.95972C11.0166 6.95972 10.8577 6.89307 10.7244 6.75976C10.5911 6.62646 10.5244 6.46751 10.5244 6.28293V2.86821C10.5244 2.66312 10.5911 2.49905 10.7244 2.376C10.8577 2.25295 11.0166 2.19142 11.2012 2.19142ZM17.3846 2.19142C17.5692 2.19142 17.7282 2.25295 17.8615 2.376C17.9948 2.49905 18.0614 2.66312 18.0614 2.86821V6.28293C18.0614 6.46751 17.9948 6.62646 17.8615 6.75976C17.7282 6.89307 17.5692 6.95972 17.3846 6.95972C17.1795 6.95972 17.0104 6.89307 16.877 6.75976C16.7437 6.62646 16.6771 6.46751 16.6771 6.28293V2.86821C16.6771 2.66312 16.7437 2.49905 16.877 2.376C17.0104 2.25295 17.1795 2.19142 17.3846 2.19142ZM23.5373 2.19142C23.7219 2.19142 23.8808 2.25295 24.0141 2.376C24.1474 2.49905 24.2141 2.66312 24.2141 2.86821V6.28293C24.2141 6.46751 24.1474 6.62646 24.0141 6.75976C23.8808 6.89307 23.7219 6.95972 23.5373 6.95972C23.3322 6.95972 23.1681 6.89307 23.0451 6.75976C22.922 6.62646 22.8605 6.46751 22.8605 6.28293V2.86821C22.8605 2.66312 22.922 2.49905 23.0451 2.376C23.1681 2.25295 23.3322 2.19142 23.5373 2.19142ZM1.2647 4.89859H3.66423V6.28293C3.66423 6.65209 3.79754 6.96998 4.06415 7.23659C4.33077 7.50321 4.65891 7.63651 5.04858 7.63651C5.41774 7.63651 5.73562 7.50321 6.00224 7.23659C6.26885 6.96998 6.40216 6.65209 6.40216 6.28293V4.89859H9.84764V6.28293C9.84764 6.65209 9.98095 6.96998 10.2476 7.23659C10.5142 7.50321 10.8321 7.63651 11.2012 7.63651C11.5909 7.63651 11.919 7.50321 12.1856 7.23659C12.4523 6.96998 12.5856 6.65209 12.5856 6.28293V4.89859H16.0003V6.28293C16.0003 6.65209 16.1336 6.96998 16.4002 7.23659C16.6668 7.50321 16.995 7.63651 17.3846 7.63651C17.7538 7.63651 18.0717 7.50321 18.3383 7.23659C18.6049 6.96998 18.7382 6.65209 18.7382 6.28293V4.89859H22.1529V6.28293C22.1529 6.65209 22.2914 6.96998 22.5682 7.23659C22.8451 7.50321 23.1681 7.63651 23.5373 7.63651C23.9064 7.63651 24.2243 7.50321 24.4909 7.23659C24.7576 6.96998 24.8909 6.65209 24.8909 6.28293V4.89859H27.2904C27.3929 4.89859 27.475 4.93448 27.5365 5.00626C27.598 5.07804 27.6288 5.15495 27.6288 5.23698V9.66689H0.926303V5.23698C0.926303 5.15495 0.962193 5.07804 1.03397 5.00626C1.10576 4.93448 1.18266 4.89859 1.2647 4.89859ZM0.926303 10.3744H27.6288V21.6338C27.5263 21.6953 27.4186 21.7722 27.3058 21.8645C27.193 21.9568 27.0853 22.0542 26.9828 22.1568L25.9368 23.295L24.8601 22.1568C24.2653 21.521 23.5937 21.2236 22.8451 21.2646C22.0965 21.3056 21.4556 21.603 20.9224 22.1568C20.3892 22.731 20.1226 23.4232 20.1226 24.2333C20.1226 25.0434 20.3892 25.7356 20.9224 26.3098L22.5836 28.0941H1.2647C1.18266 28.0941 1.10576 28.0633 1.03397 28.0018C0.962193 27.9403 0.926303 27.8582 0.926303 27.7557V10.3744ZM28.9516 21.9414C29.2182 21.9414 29.4797 21.9978 29.7361 22.1106C29.9924 22.2234 30.2232 22.3926 30.4283 22.6182C30.8589 23.0694 31.0743 23.6078 31.0743 24.2333C31.0743 24.8588 30.8589 25.3972 30.4283 25.8484L25.9368 30.6474L21.4146 25.8484C21.0044 25.3972 20.7994 24.8588 20.7994 24.2333C20.7994 23.6078 21.0044 23.0694 21.4146 22.6182C21.6197 22.3926 21.8504 22.2285 22.1068 22.126C22.3632 22.0235 22.6246 21.9722 22.8913 21.9722C23.1579 21.9722 23.4194 22.0235 23.6757 22.126C23.9321 22.2285 24.1628 22.3926 24.3679 22.6182L25.6599 24.0333C25.742 24.0948 25.8343 24.1256 25.9368 24.1256C26.0394 24.1256 26.1214 24.0948 26.1829 24.0333L27.475 22.6182C27.6801 22.3926 27.9108 22.2234 28.1672 22.1106C28.4235 21.9978 28.685 21.9414 28.9516 21.9414Z" fill="#FFDEA0"/>
</g>
<defs>
<clipPath id="clip0_592_5770">
<rect width="31.5016" height="32.2891" fill="white" transform="matrix(1 0 0 -1 0.249512 32.6406)"/>
</clipPath>
</defs>
</svg>
