<?xml version="1.0" standalone="no"?>
<!DOCTYPE svg PUBLIC "-//W3C//DTD SVG 20010904//EN"
 "http://www.w3.org/TR/2001/REC-SVG-20010904/DTD/svg10.dtd">
<svg version="1.0" xmlns="http://www.w3.org/2000/svg"
 width="1024.000000pt" height="1024.000000pt" viewBox="0 0 1024.000000 1024.000000"
 preserveAspectRatio="xMidYMid meet">

<g transform="translate(0.000000,1024.000000) scale(0.100000,-0.100000)"
fill="#000000" stroke="none">
<path d="M4800 8337 l0 -364 158 -51 c289 -95 293 -96 512 -96 214 -1 252 5
452 69 159 52 269 69 443 69 175 0 264 -14 445 -72 160 -51 285 -72 425 -72
154 0 263 21 482 93 l188 62 3 363 2 362 -1555 0 -1555 0 0 -363z m2910 -42
l0 -155 -95 0 -95 0 0 155 0 155 95 0 95 0 0 -155z"/>
<path d="M7820 7698 c-312 -116 -511 -151 -720 -128 -123 13 -196 30 -300 65
-67 23 -143 44 -235 64 -16 3 -113 6 -215 6 -202 0 -245 -7 -440 -70 -167 -53
-266 -69 -430 -69 -175 1 -308 26 -532 102 l-148 49 0 -411 c0 -582 20 -710
154 -992 271 -566 857 -921 1471 -890 154 8 170 10 301 41 268 63 514 204 719
410 227 227 361 480 436 824 19 87 22 136 26 511 2 228 1 438 -4 465 l-8 51
-75 -28z m-90 -453 l0 -105 -105 0 -105 0 0 105 0 105 105 0 105 0 0 -105z
m-4 -377 c-3 -13 -14 -73 -25 -133 -91 -492 -430 -871 -886 -990 -49 -13 -110
-26 -135 -30 -25 -4 -53 -9 -62 -11 -16 -5 -18 5 -18 109 0 126 0 127 65 127
18 0 62 7 97 16 200 49 359 145 485 293 127 148 212 333 253 546 20 104 8 95
126 95 103 0 104 0 100 -22z"/>
<path d="M6250 4033 l0 -1148 -121 -75 c-242 -149 -455 -280 -506 -310 -29
-16 -53 -35 -53 -40 0 -7 275 -10 790 -10 464 0 790 4 790 9 0 10 -49 42 -412
267 l-258 159 0 1148 0 1147 -115 0 -115 0 0 -1147z"/>
<path d="M4299 4190 c-64 -11 -139 -52 -182 -99 -177 -196 -97 -500 150 -567
158 -43 321 32 393 181 18 37 25 71 28 136 4 78 2 93 -22 145 -40 88 -88 139
-159 172 -69 33 -139 44 -208 32z"/>
<path d="M5294 4186 c-106 -26 -180 -89 -230 -195 -22 -46 -26 -67 -25 -138 2
-109 28 -181 90 -243 73 -73 128 -95 236 -95 83 0 95 3 153 34 70 38 120 92
154 167 34 75 32 209 -3 285 -67 142 -229 222 -375 185z"/>
<path d="M2490 4147 c-3 -2 -25 -7 -50 -10 -68 -8 -100 -18 -100 -31 1 -32 91
-252 128 -312 69 -113 182 -234 297 -316 218 -155 481 -214 785 -174 166 22
163 21 157 61 -8 48 -63 181 -107 258 -147 255 -352 421 -610 493 -84 23 -118
27 -295 31 -110 3 -202 3 -205 0z"/>
<path d="M3824 3156 c-168 -42 -280 -227 -244 -402 22 -110 78 -186 173 -236
36 -20 57 -23 142 -23 86 0 107 3 149 24 64 32 123 92 155 161 22 47 26 69 26
150 0 89 -2 99 -34 158 -19 34 -50 77 -70 94 -78 69 -199 99 -297 74z"/>
<path d="M4831 3160 c-93 -20 -182 -96 -229 -199 -23 -47 -27 -70 -27 -146 1
-105 19 -156 81 -225 59 -65 141 -100 235 -100 141 0 239 57 299 174 63 123
51 262 -30 372 -71 98 -208 149 -329 124z"/>
<path d="M4262 2162 c-76 -27 -141 -86 -181 -166 -29 -56 -35 -79 -39 -149 -5
-101 18 -172 80 -241 60 -69 124 -98 229 -104 78 -4 91 -2 148 23 71 32 142
104 174 175 31 70 34 191 7 262 -28 77 -103 158 -171 188 -73 31 -179 36 -247
12z"/>
</g>
</svg>
