<svg width="38" height="35" viewBox="0 0 38 35" fill="none" xmlns="http://www.w3.org/2000/svg">
<path d="M36.8625 3.12972C36.8388 3.106 36.7973 3.07635 36.738 3.04077C36.6787 3.00519 36.6372 2.97553 36.6135 2.95181L36.3644 2.88065L20.815 18.4301L18.5377 16.2595C18.348 16.0698 18.2234 15.8503 18.1641 15.6013C18.1048 15.3522 18.0989 15.1091 18.1463 14.8718C18.4547 13.923 18.4784 12.9445 18.2175 11.9363C17.9566 10.9281 17.4465 10.0445 16.6875 9.28544L8.07657 0.638973C7.98168 0.544086 7.88087 0.496643 7.77412 0.496643C7.66738 0.496643 7.59028 0.544086 7.54284 0.638973C7.44795 0.733856 7.40051 0.834675 7.40051 0.941422C7.40051 1.04817 7.44795 1.12526 7.54284 1.1727L16.1537 9.81917C16.7942 10.4597 17.233 11.2128 17.4703 12.0786C17.7075 12.9445 17.6956 13.7925 17.4347 14.6228C17.3161 15.0023 17.2983 15.3937 17.3813 15.797C17.4643 16.2002 17.66 16.5323 17.9684 16.7933L20.2813 18.9994L19.2494 20.0313L17.0789 17.7184C16.7942 17.41 16.4562 17.2084 16.0648 17.1135C15.6734 17.0186 15.276 17.0424 14.8728 17.1847C14.0662 17.4456 13.2241 17.4575 12.3464 17.2203C11.4687 16.983 10.7097 16.5442 10.0692 15.9037L1.45829 7.25726C1.3634 7.16237 1.26259 7.11493 1.15584 7.11493C1.04909 7.11493 0.971998 7.16237 0.924555 7.25726C0.829669 7.35214 0.782227 7.45296 0.782227 7.5597C0.782227 7.66645 0.829669 7.74354 0.924555 7.79099L9.53544 16.4375C10.2945 17.1965 11.1781 17.7066 12.1863 17.9675C13.1945 18.2284 14.173 18.2047 15.1218 17.8963C15.3591 17.8014 15.6081 17.7955 15.8691 17.8785C16.13 17.9616 16.3435 18.0861 16.5095 18.2521L18.7156 20.565L7.89866 31.4531C7.70889 31.6429 7.56063 31.8564 7.45388 32.0936C7.34714 32.3308 7.29376 32.5799 7.29376 32.8408C7.29376 33.1255 7.34121 33.3864 7.43609 33.6236C7.53098 33.8609 7.66145 34.0625 7.8275 34.2285C8.01727 34.4183 8.23076 34.5606 8.46797 34.6555C8.70519 34.7504 8.96612 34.7979 9.25078 34.7979C9.51172 34.7979 9.76079 34.7385 9.99801 34.6199C10.2352 34.5013 10.4487 34.359 10.6385 34.193L19.3205 24.9416C19.3443 24.9179 19.3976 24.8823 19.4807 24.8348C19.5637 24.7874 19.6526 24.7281 19.7475 24.6569C19.961 24.5383 20.216 24.3841 20.5125 24.1944C20.8091 24.0046 21.1352 23.7911 21.491 23.5539L31.5608 34.193C31.7506 34.359 31.9641 34.5013 32.2013 34.6199C32.4385 34.7385 32.6994 34.7979 32.9841 34.7979C33.245 34.7979 33.4941 34.7504 33.7313 34.6555C33.9685 34.5606 34.182 34.4064 34.3718 34.193C34.5616 34.0032 34.7098 33.7778 34.8166 33.5169C34.9233 33.256 34.9767 32.995 34.9767 32.7341C34.9767 32.4494 34.9233 32.1885 34.8166 31.9513C34.7098 31.7141 34.5616 31.5124 34.3718 31.3464L24.3376 21.7392C25.0493 21.241 25.7787 20.6955 26.5259 20.1024C27.2731 19.5094 28.05 18.8808 28.8566 18.2166C30.0426 17.1491 31.0982 16.0935 32.0234 15.0497C32.9722 14.006 33.7906 12.9563 34.4785 11.9007C35.1665 10.8451 35.7358 9.79545 36.1865 8.75171C36.6372 7.70796 36.9574 6.66422 37.1472 5.62048V5.54931C37.1946 5.28838 37.2184 4.87918 37.2184 4.32173C37.2184 3.76427 37.0998 3.36694 36.8625 3.12972ZM33.9448 31.9513C34.0634 32.0699 34.1524 32.2004 34.2117 32.3427C34.271 32.485 34.3006 32.6392 34.3006 32.8053C34.3006 32.9476 34.271 33.1018 34.2117 33.2678C34.1524 33.4339 34.0634 33.5525 33.9448 33.6236C33.8262 33.766 33.6898 33.8668 33.5356 33.9261C33.3814 33.9854 33.2332 34.015 33.0908 34.015C32.9485 34.015 32.8002 33.9854 32.6461 33.9261C32.4919 33.8668 32.3555 33.766 32.2369 33.6236L22.2739 23.1981C22.4873 23.032 22.7127 22.8719 22.9499 22.7177C23.1871 22.5635 23.4362 22.3915 23.6971 22.2018L33.9448 31.9513ZM36.4356 5.51373C36.2458 6.51003 35.9374 7.50633 35.5104 8.50263C35.0834 9.52265 34.526 10.5427 33.8381 11.5627C33.1501 12.5827 32.3436 13.5909 31.4185 14.5872C30.4933 15.6072 29.4496 16.6272 28.2872 17.6472C27.3621 18.4775 26.4488 19.2366 25.5474 19.9245C24.646 20.6124 23.798 21.2233 23.0033 21.757C22.2086 22.2907 21.5029 22.7474 20.8862 23.1269C20.2694 23.5302 19.7831 23.8385 19.4273 24.052C19.285 24.1232 19.1782 24.1825 19.107 24.2299C19.0359 24.2774 18.9884 24.313 18.9647 24.3367H18.8224L10.0692 33.6236C9.95056 33.766 9.82603 33.8668 9.69556 33.9261C9.56509 33.9854 9.41683 34.015 9.25078 34.015C9.08473 34.015 8.93054 33.9854 8.78821 33.9261C8.64589 33.8668 8.51542 33.766 8.39681 33.6236C8.30192 33.5525 8.22483 33.4457 8.16553 33.3034C8.10622 33.1611 8.07657 33.0069 8.07657 32.8408C8.07657 32.6985 8.10622 32.5502 8.16553 32.3961C8.22483 32.2419 8.31379 32.1055 8.43239 31.9869L36.3644 3.9837C36.3881 4.1023 36.4118 4.29207 36.4356 4.55301C36.4593 4.81395 36.4593 5.13419 36.4356 5.51373ZM3.09507 5.62048C3.00018 5.52559 2.95274 5.42477 2.95274 5.31803C2.95274 5.21128 3.00018 5.13419 3.09507 5.08674C3.18995 4.99186 3.29077 4.94441 3.39752 4.94441C3.50426 4.94441 3.59322 4.99186 3.66438 5.08674L12.0262 13.413C12.1211 13.4841 12.1685 13.5731 12.1685 13.6798C12.1685 13.7866 12.1211 13.8755 12.0262 13.9467C12.0025 13.9704 11.961 13.9941 11.9017 14.0179C11.8424 14.0416 11.7771 14.0534 11.706 14.0534C11.6585 14.0534 11.617 14.0416 11.5814 14.0179C11.5458 13.9941 11.4925 13.9704 11.4213 13.9467L3.09507 5.62048ZM5.33674 3.3788C5.26558 3.28391 5.23 3.1831 5.23 3.07635C5.23 2.9696 5.26558 2.88065 5.33674 2.80948C5.43163 2.73832 5.53245 2.70274 5.63919 2.70274C5.74594 2.70274 5.83489 2.73832 5.90606 2.80948L14.2679 11.2069C14.3628 11.3018 14.4102 11.4026 14.4102 11.5093C14.4102 11.6161 14.3628 11.705 14.2679 11.7762C14.2441 11.7999 14.2026 11.8236 14.1433 11.8474C14.084 11.8711 14.0307 11.8829 13.9832 11.8829C13.912 11.8829 13.8587 11.8711 13.8231 11.8474C13.7875 11.8236 13.7341 11.7999 13.663 11.7762L5.33674 3.3788Z" fill="#FFDEA0"/>
</svg>
