<svg width="32" height="32" viewBox="0 0 32 32" fill="none" xmlns="http://www.w3.org/2000/svg">
<g clip-path="url(#clip0_85_2936)">
<path d="M6.53056 14.4545V19.6895C6.25294 19.7688 6.02986 19.9175 5.86131 20.1357C5.69276 20.3538 5.60848 20.6116 5.60848 20.909C5.60848 21.266 5.72746 21.5684 5.96541 21.8162C6.20337 22.0641 6.50081 22.188 6.85775 22.188H25.4183C25.7554 22.188 26.0479 22.0641 26.2958 21.8162C26.5436 21.5684 26.6676 21.266 26.6676 20.909C26.6676 20.6116 26.5833 20.3538 26.4147 20.1357C26.2462 19.9175 26.0231 19.7688 25.7455 19.6895V14.4545C26.8559 14.0975 27.7532 13.4382 28.4374 12.4765C29.1215 11.5147 29.4635 10.4489 29.4635 9.27893C29.4635 7.77188 28.9331 6.48791 27.8722 5.42702C26.8113 4.36614 25.5274 3.83569 24.0203 3.83569C23.6634 3.83569 23.3064 3.87039 22.9495 3.9398C22.5926 4.0092 22.2555 4.11331 21.9382 4.25212C21.3036 3.26063 20.4708 2.47736 19.4397 1.9023C18.4085 1.32724 17.308 1.03971 16.138 1.03971C14.9681 1.03971 13.8675 1.32724 12.8364 1.9023C11.8052 2.47736 10.9724 3.26063 10.3378 4.25212C10.0206 4.11331 9.68347 4.0092 9.32654 3.9398C8.9696 3.87039 8.61267 3.83569 8.25574 3.83569C6.74868 3.83569 5.46471 4.36614 4.40383 5.42702C3.34294 6.48791 2.8125 7.77188 2.8125 9.27893C2.8125 10.4489 3.15456 11.5147 3.83868 12.4765C4.52281 13.4382 5.4201 14.0975 6.53056 14.4545ZM26.0132 20.909C26.0132 21.0677 25.9537 21.2065 25.8347 21.3254C25.7157 21.4444 25.5769 21.5039 25.4183 21.5039H6.85775C6.69911 21.5039 6.5603 21.4444 6.44132 21.3254C6.32235 21.2065 6.26286 21.0677 6.26286 20.909C6.26286 20.7504 6.32235 20.6116 6.44132 20.4926C6.5603 20.3736 6.69911 20.3141 6.85775 20.3141H25.4183C25.5769 20.3141 25.7157 20.3736 25.8347 20.4926C25.9537 20.6116 26.0132 20.7504 26.0132 20.909ZM8.25574 4.49007C8.61267 4.49007 8.96465 4.53469 9.31167 4.62392C9.65868 4.71315 10.0007 4.83709 10.3378 4.99573C10.4172 5.03539 10.4965 5.04034 10.5758 5.0106C10.6551 4.98085 10.7245 4.92632 10.784 4.847C11.3194 3.87535 12.068 3.11191 13.0297 2.55668C13.9915 2.00145 15.0276 1.72383 16.138 1.72383C17.2485 1.72383 18.2846 2.00145 19.2463 2.55668C20.2081 3.11191 20.9566 3.87535 21.492 4.847C21.5317 4.92632 21.5961 4.98085 21.6854 5.0106C21.7746 5.04034 21.8589 5.03539 21.9382 4.99573C22.2555 4.83709 22.5926 4.71315 22.9495 4.62392C23.3064 4.53469 23.6634 4.49007 24.0203 4.49007C25.3291 4.49007 26.4494 4.96103 27.3814 5.90293C28.3134 6.84484 28.7794 7.97017 28.7794 9.27893C28.7794 10.3497 28.4572 11.3115 27.8127 12.1641C27.1683 13.0168 26.3404 13.5919 25.3291 13.8893C25.2497 13.9092 25.1903 13.9488 25.1506 14.0083C25.1109 14.0678 25.0911 14.1372 25.0911 14.2165V19.63H7.18494V14.2165C7.18494 14.1372 7.16511 14.0678 7.12545 14.0083C7.08579 13.9488 7.0263 13.9092 6.94698 13.8893C5.93567 13.5919 5.10778 13.0168 4.46332 12.1641C3.81885 11.3115 3.49662 10.3497 3.49662 9.27893C3.49662 7.97017 3.95766 6.84484 4.87974 5.90293C5.80182 4.96103 6.92715 4.49007 8.25574 4.49007ZM27.6491 25.9358C27.5103 25.8565 27.3616 25.8119 27.203 25.802C27.0443 25.7921 26.8956 25.8268 26.7568 25.9061C26.1024 26.3027 25.5125 26.4564 24.987 26.3671C24.4615 26.2779 24.0996 26.1837 23.9013 26.0846C23.6634 25.9656 23.4502 25.8516 23.2618 25.7425C23.0734 25.6334 22.8801 25.5194 22.6818 25.4004C22.1266 25.0832 21.5713 24.8055 21.0161 24.5676C20.4609 24.3296 19.7371 24.2503 18.8448 24.3296C18.3094 24.3693 17.8136 24.4932 17.3575 24.7014C16.9015 24.9096 16.495 25.2021 16.138 25.5789C15.7811 25.2021 15.3746 24.9096 14.9185 24.7014C14.4624 24.4932 13.9667 24.3693 13.4313 24.3296C12.5389 24.2503 11.8102 24.3296 11.2451 24.5676C10.6799 24.8055 10.1197 25.0832 9.56449 25.4004C9.38603 25.5194 9.19765 25.6334 8.99935 25.7425C8.80105 25.8516 8.59284 25.9656 8.37471 26.0846C8.15659 26.1837 7.78478 26.2779 7.2593 26.3671C6.73381 26.4564 6.1538 26.3027 5.51925 25.9061C5.38044 25.8268 5.23172 25.7921 5.07308 25.802C4.91444 25.8119 4.76572 25.8565 4.62691 25.9358C4.50793 26.035 4.4187 26.154 4.35921 26.2928C4.29972 26.4316 4.28981 26.5902 4.32947 26.7687C4.50793 27.7205 4.92931 28.5484 5.59361 29.2523C6.2579 29.9563 7.12545 30.4966 8.19625 30.8734C9.04892 31.1907 9.98092 31.384 10.9922 31.4534C12.0035 31.5228 12.995 31.4782 13.9667 31.3196C14.4029 31.2403 14.8045 31.1312 15.1713 30.9924C15.5382 30.8536 15.8604 30.6751 16.138 30.457C16.4156 30.6751 16.7379 30.8536 17.1047 30.9924C17.4716 31.1312 17.8731 31.2403 18.3094 31.3196C18.6465 31.3791 18.9885 31.4237 19.3356 31.4534C19.6826 31.4832 20.0345 31.498 20.3915 31.498C21.0657 31.498 21.73 31.4435 22.3844 31.3345C23.0387 31.2254 23.6535 31.0618 24.2285 30.8437C25.2597 30.4471 26.0925 29.9018 26.727 29.2077C27.3616 28.5137 27.7681 27.7007 27.9466 26.7687C27.9466 26.7687 27.9515 26.7637 27.9614 26.7538C27.9714 26.7439 27.9763 26.7389 27.9763 26.7389C27.9961 26.5803 27.9763 26.4316 27.9168 26.2928C27.8573 26.154 27.7681 26.035 27.6491 25.9358ZM27.2922 26.62C27.0939 27.6511 26.6527 28.4443 25.9686 28.9995C25.2844 29.5547 24.6152 29.9612 23.9608 30.219C23.1676 30.5165 22.2852 30.7049 21.3136 30.7842C20.3419 30.8635 19.3802 30.8238 18.4283 30.6652C17.9723 30.5859 17.5707 30.4719 17.2237 30.3231C16.8767 30.1744 16.5842 29.991 16.3462 29.7729C16.3264 29.753 16.2967 29.7382 16.257 29.7283C16.2173 29.7183 16.1777 29.7134 16.138 29.7134C16.0984 29.7134 16.0587 29.7183 16.019 29.7283C15.9794 29.7382 15.9397 29.753 15.9001 29.7729C15.6621 29.991 15.3746 30.1744 15.0375 30.3231C14.7004 30.4719 14.3038 30.5859 13.8477 30.6652C12.9355 30.8238 12.0035 30.8635 11.0517 30.7842C10.0999 30.7049 9.22739 30.5264 8.4342 30.2488C7.76 30.0108 7.06596 29.6142 6.35209 29.059C5.63822 28.5038 5.18214 27.6908 4.98385 26.62C4.96402 26.6001 4.95906 26.5803 4.96897 26.5605C4.97889 26.5406 4.99376 26.5208 5.01359 26.501C5.05325 26.4811 5.08299 26.4712 5.10282 26.4712C5.12265 26.4712 5.14248 26.4811 5.16231 26.501C5.71754 26.8183 6.30252 26.9967 6.91724 27.0364C7.53196 27.076 8.11693 26.9571 8.67216 26.6794C8.91012 26.5605 9.12824 26.4464 9.32654 26.3374C9.52483 26.2283 9.72313 26.1143 9.92143 25.9953C10.437 25.678 10.9427 25.4153 11.4384 25.2071C11.9341 24.9989 12.5786 24.9344 13.3718 25.0138C13.8874 25.0534 14.3534 25.1773 14.7698 25.3856C15.1862 25.5938 15.553 25.8962 15.8703 26.2928C15.91 26.3324 15.9496 26.3622 15.9893 26.382C16.029 26.4018 16.0785 26.4117 16.138 26.4117C16.1777 26.4117 16.2223 26.4018 16.2719 26.382C16.3214 26.3622 16.3561 26.3324 16.376 26.2928C16.7131 25.8962 17.0898 25.5938 17.5063 25.3856C17.9227 25.1773 18.3887 25.0534 18.9043 25.0138C19.6776 24.9344 20.3122 24.9989 20.8079 25.2071C21.3036 25.4153 21.8192 25.678 22.3546 25.9953C22.5529 26.1143 22.7512 26.2283 22.9495 26.3374C23.1478 26.4464 23.3659 26.5605 23.6039 26.6794C24.1591 26.9571 24.7441 27.076 25.3588 27.0364C25.9735 26.9967 26.5585 26.8183 27.1137 26.501C27.1137 26.4811 27.1286 26.4712 27.1583 26.4712C27.1881 26.4712 27.2129 26.4811 27.2327 26.501C27.2327 26.501 27.2377 26.501 27.2476 26.501C27.2575 26.501 27.2624 26.501 27.2624 26.501C27.2823 26.5208 27.2922 26.5456 27.2922 26.5753C27.2922 26.6051 27.2922 26.62 27.2922 26.62Z" fill="#FFDEA0"/>
</g>
<defs>
<clipPath id="clip0_85_2936">
<rect width="30.4583" height="31.2198" fill="white" transform="matrix(1 0 0 -1 0.910156 31.8789)"/>
</clipPath>
</defs>
</svg>
