<svg width="31" height="32" viewBox="0 0 31 32" fill="none" xmlns="http://www.w3.org/2000/svg">
<g clip-path="url(#clip0_85_2900)">
<path d="M13.6591 4.0918C14.1151 4.0918 14.5068 3.9282 14.834 3.60101C15.1612 3.27382 15.3247 2.88219 15.3247 2.42611C15.3247 1.97002 15.1612 1.57839 14.834 1.2512C14.5068 0.924011 14.1151 0.760416 13.6591 0.760416C13.5401 0.760416 13.4459 0.795118 13.3765 0.864522C13.3071 0.933925 13.2724 1.02812 13.2724 1.14709C13.2724 1.24624 13.3071 1.33548 13.3765 1.41479C13.4459 1.49411 13.5401 1.53377 13.6591 1.53377C13.897 1.53377 14.1052 1.61805 14.2837 1.7866C14.4622 1.95515 14.5514 2.16832 14.5514 2.42611C14.5514 2.68389 14.4622 2.89706 14.2837 3.06561C14.1052 3.23416 13.897 3.31844 13.6591 3.31844C13.1831 3.31844 12.7866 3.48203 12.4693 3.80922C12.152 4.13641 11.9934 4.52805 11.9934 4.98413C11.9934 5.44021 12.152 5.83185 12.4693 6.15904C12.7866 6.48623 13.1831 6.64982 13.6591 6.64982C13.7582 6.64982 13.8425 6.61512 13.9119 6.54571C13.9813 6.47631 14.016 6.38212 14.016 6.26314C14.016 6.16399 13.9813 6.07972 13.9119 6.01031C13.8425 5.94091 13.7582 5.90621 13.6591 5.90621C13.4013 5.90621 13.1831 5.81698 13.0047 5.63851C12.8262 5.46004 12.737 5.24192 12.737 4.98413C12.737 4.74617 12.8262 4.53796 13.0047 4.3595C13.1831 4.18103 13.4013 4.0918 13.6591 4.0918ZM17.5258 4.0918C18.0018 4.0918 18.3983 3.9282 18.7156 3.60101C19.0329 3.27382 19.1915 2.88219 19.1915 2.42611C19.1915 1.97002 19.0329 1.57839 18.7156 1.2512C18.3983 0.924011 18.0018 0.760416 17.5258 0.760416C17.4267 0.760416 17.3424 0.795118 17.273 0.864522C17.2036 0.933925 17.1689 1.02812 17.1689 1.14709C17.1689 1.24624 17.2036 1.33548 17.273 1.41479C17.3424 1.49411 17.4267 1.53377 17.5258 1.53377C17.7836 1.53377 18.0018 1.61805 18.1802 1.7866C18.3587 1.95515 18.4479 2.16832 18.4479 2.42611C18.4479 2.68389 18.3587 2.89706 18.1802 3.06561C18.0018 3.23416 17.7836 3.31844 17.5258 3.31844C17.0698 3.31844 16.6781 3.48203 16.3509 3.80922C16.0237 4.13641 15.8601 4.52805 15.8601 4.98413C15.8601 5.44021 16.0237 5.83185 16.3509 6.15904C16.6781 6.48623 17.0698 6.64982 17.5258 6.64982C17.6448 6.64982 17.739 6.61512 17.8084 6.54571C17.8778 6.47631 17.9125 6.38212 17.9125 6.26314C17.9125 6.16399 17.8778 6.07972 17.8084 6.01031C17.739 5.94091 17.6448 5.90621 17.5258 5.90621C17.2879 5.90621 17.0797 5.81698 16.9012 5.63851C16.7227 5.46004 16.6335 5.24192 16.6335 4.98413C16.6335 4.74617 16.7227 4.53796 16.9012 4.3595C17.0797 4.18103 17.2879 4.0918 17.5258 4.0918ZM18.7751 16.1086C18.676 16.0689 18.5818 16.0838 18.4925 16.1532C18.4033 16.2226 18.3587 16.3069 18.3587 16.406C18.3389 16.5052 18.3587 16.5993 18.4182 16.6886C18.4777 16.7778 18.557 16.8323 18.6561 16.8522C20.1632 17.1298 21.4967 17.7941 22.6568 18.8451C23.8168 19.896 24.5951 21.1651 24.9917 22.6523C25.0115 22.7515 25.0561 22.8259 25.1255 22.8754C25.195 22.925 25.2693 22.9498 25.3486 22.9498C25.3685 22.9498 25.3883 22.9498 25.4081 22.9498C25.428 22.9498 25.4478 22.9399 25.4676 22.92C25.5668 22.9002 25.6411 22.8457 25.6907 22.7564C25.7403 22.6672 25.7551 22.573 25.7353 22.4739C25.5172 21.6609 25.1801 20.8974 24.724 20.1836C24.2877 19.4697 23.7672 18.8351 23.1624 18.2799C22.5576 17.7247 21.8884 17.2587 21.1547 16.8819C20.4011 16.5052 19.608 16.2474 18.7751 16.1086ZM30.4349 26.2812H30.2862V25.5376C30.2862 23.6934 29.9689 21.9682 29.3344 20.362C28.68 18.7558 27.7728 17.343 26.6128 16.1234C25.4527 14.9039 24.0795 13.9075 22.4932 13.1341C20.9068 12.3608 19.1717 11.8848 17.2879 11.7064C17.5258 11.4684 17.7142 11.1958 17.853 10.8884C17.9918 10.581 18.0612 10.2588 18.0612 9.92171C18.0612 9.22767 17.8183 8.6427 17.3325 8.16679C16.8467 7.69088 16.2667 7.45292 15.5924 7.45292C14.9182 7.45292 14.3382 7.69088 13.8524 8.16679C13.3666 8.6427 13.1237 9.22767 13.1237 9.92171C13.1237 10.2588 13.1931 10.581 13.3319 10.8884C13.4707 11.1958 13.6591 11.4684 13.897 11.7064C12.0132 11.8848 10.2781 12.3608 8.69173 13.1341C7.10536 13.9075 5.73216 14.9039 4.57212 16.1234C3.41209 17.343 2.50488 18.7558 1.8505 20.362C1.21596 21.9682 0.898682 23.6934 0.898682 25.5376V26.2812H0.749959C0.630981 26.2812 0.536791 26.3159 0.467387 26.3853C0.397983 26.4547 0.363281 26.5489 0.363281 26.6678V30.8321C0.363281 30.951 0.397983 31.0452 0.467387 31.1146C0.536791 31.184 0.630981 31.2188 0.749959 31.2188H30.4349C30.5539 31.2188 30.6481 31.184 30.7175 31.1146C30.7869 31.0452 30.8216 30.951 30.8216 30.8321V26.6678C30.8216 26.5489 30.7869 26.4547 30.7175 26.3853C30.6481 26.3159 30.5539 26.2812 30.4349 26.2812ZM13.897 9.92171C13.897 9.4458 14.0606 9.04425 14.3878 8.71706C14.715 8.38987 15.1165 8.22628 15.5924 8.22628C16.0684 8.22628 16.4699 8.38987 16.7971 8.71706C17.1243 9.04425 17.2879 9.4458 17.2879 9.92171C17.2879 10.3778 17.1243 10.7744 16.7971 11.1115C16.4699 11.4486 16.0684 11.6171 15.5924 11.6171C15.1165 11.6171 14.715 11.4486 14.3878 11.1115C14.0606 10.7744 13.897 10.3778 13.897 9.92171ZM1.64229 25.5376C1.64229 23.6736 1.99923 21.9385 2.71309 20.3323C3.42696 18.7062 4.40357 17.3083 5.64292 16.1383C6.88228 14.9684 8.35463 14.0463 10.06 13.3721C11.7653 12.6979 13.6095 12.3608 15.5924 12.3608C17.5754 12.3608 19.4196 12.6979 21.1249 13.3721C22.8303 14.0463 24.3026 14.9684 25.542 16.1383C26.7813 17.3083 27.7579 18.7062 28.4718 20.3323C29.1857 21.9385 29.5426 23.6736 29.5426 25.5376V26.2812H1.64229V25.5376ZM30.0483 30.4454H1.13664V27.0545H30.0483V30.4454Z" fill="#FFDEA0"/>
</g>
<defs>
<clipPath id="clip0_85_2900">
<rect width="30.4583" height="31.2198" fill="white" transform="matrix(1 0 0 -1 0.363281 31.5996)"/>
</clipPath>
</defs>
</svg>
